<?xml version="1.0" standalone="no"?>
<!DOCTYPE svg PUBLIC "-//W3C//DTD SVG 20010904//EN"
 "http://www.w3.org/TR/2001/REC-SVG-20010904/DTD/svg10.dtd">
<svg version="1.0" xmlns="http://www.w3.org/2000/svg"
 width="192.000000pt" height="192.000000pt" viewBox="0 0 192.000000 192.000000"
 preserveAspectRatio="xMidYMid meet">
<metadata>
Created by potrace 1.14, written by Peter Selinger 2001-2017
</metadata>
<g transform="translate(0.000000,192.000000) scale(0.100000,-0.100000)"
fill="#000000" stroke="none">
<path d="M590 1839 c-96 -3 -186 -10 -200 -16 -51 -23 -96 -65 -122 -116 l-28
-52 3 -705 c2 -785 -3 -724 73 -802 66 -68 69 -69 645 -69 530 1 546 2 612 41
30 19 75 77 95 123 9 21 11 201 10 730 -3 782 2 721 -74 799 -62 64 -85 68
-484 71 -195 1 -434 -1 -530 -4z m907 -182 c17 -17 18 -60 20 -690 2 -649 2
-673 -17 -697 l-19 -25 -520 0 c-486 0 -521 1 -538 18 -17 17 -18 60 -21 693
l-2 675 27 25 26 25 513 -3 c477 -3 515 -4 531 -21z"/>
<path d="M920 1520 c-217 -4 -311 -9 -327 -17 -27 -16 -36 -44 -28 -84 12 -55
28 -59 281 -59 488 -1 458 -3 488 25 31 28 34 72 9 104 -27 32 -85 37 -423 31z"/>
<path d="M591 1181 c-58 -58 -24 -141 60 -141 28 0 69 48 69 80 0 63 -86 104
-129 61z"/>
<path d="M905 1174 c-23 -22 -27 -31 -22 -62 12 -72 86 -96 133 -45 21 23 25
35 20 63 -11 68 -80 92 -131 44z"/>
<path d="M1226 1175 c-50 -46 -25 -120 44 -131 28 -5 40 -1 63 20 35 32 36 74
2 110 -31 34 -73 34 -109 1z"/>
<path d="M584 853 c-21 -23 -25 -35 -20 -63 11 -68 80 -92 131 -44 23 22 27
31 22 62 -12 72 -86 96 -133 45z"/>
<path d="M910 860 c-43 -43 -35 -111 16 -130 41 -16 63 -12 90 17 66 71 -38
181 -106 113z"/>
<path d="M1227 856 c-35 -32 -36 -74 -2 -110 31 -34 73 -34 109 -1 50 46 25
120 -44 131 -28 5 -40 1 -63 -20z"/>
<path d="M904 533 c-21 -23 -25 -35 -20 -63 14 -90 130 -94 152 -5 19 77 -78
126 -132 68z"/>
</g>
</svg>
